#N canvas 359 31 779 608 12;
#X obj 110 410 vline~;
#X obj 110 463 *~;
#X obj 365 291 vline~;
#X obj 365 409 +~;
#X obj 365 432 osc~;
#X obj 29 23 inlet;
#X obj 51 537 outlet~;
#X text 82 24 protocol \, packet_len \, direction;
#X obj 51 501 *~;
#X obj 110 267 moses 1;
#X obj 29 51 unpack f f f;
#X text 448 160 factor to scale pitch sweep;
#X text 449 193 check for direction;
#X text 467 230 sent (pitch -> up);
#X text 210 306 sent (fade);
#X text 376 354 *modulator*;
#X text 337 27 *carrier*;
#X text 610 305 mod index;
#X text 171 267 check for direction;
#X obj 365 193 route 0 1;
#X obj 365 160 pack f f f;
#X text 497 257 received (pitch -> down);
#X text 251 337 received (rise);
#X obj 212 128 t f f;
#X obj 342 63 t b f b;
#X obj 212 101 float;
#X obj 365 90 expr 1*pow(2 \, ($f1/12))+($f2/5000);
#X floatatom 626 327 5 0 0 0 - - -;
#X obj 463 383 *~;
#X floatatom 506 303 5 0 0 0 - - -;
#X text 500 282 harmonicity;
#X text 110 230 *simple env*;
#X obj 463 353 osc~;
#X msg -44 56 1 0.95 1;
#X obj 110 433 pow~ 8;
#X msg -44 23 1 0.95 0;
#X msg 110 306 1 5 \, 0 300 5;
#X msg 365 230 \$1 0 \, \$2 300;
#X msg 395 258 \$2 0 \, \$1 300;
#X msg -44 95 1 0.5 1;
#X obj 432 125 * 520;
#X obj 523 63 random 200;
#X obj 463 325 *~ 1.75;
#X obj 575 351 *~ 2;
#X obj 365 125 * 440;
#X obj 183 407 expr 8/(1+$f1);
#X msg 130 337 0.5 5 \, 1 250 \, 0 50 250;
#X connect 0 0 34 0;
#X connect 1 0 8 0;
#X connect 2 0 3 0;
#X connect 2 0 42 0;
#X connect 3 0 4 0;
#X connect 4 0 1 1;
#X connect 5 0 10 0;
#X connect 8 0 6 0;
#X connect 9 0 36 0;
#X connect 9 1 46 0;
#X connect 10 0 24 0;
#X connect 10 1 8 1;
#X connect 10 1 45 0;
#X connect 10 2 25 1;
#X connect 19 0 37 0;
#X connect 19 1 38 0;
#X connect 20 0 19 0;
#X connect 23 0 9 0;
#X connect 23 1 20 0;
#X connect 24 0 25 0;
#X connect 24 1 26 0;
#X connect 24 2 41 0;
#X connect 25 0 23 0;
#X connect 26 0 40 0;
#X connect 26 0 44 0;
#X connect 27 0 43 1;
#X connect 28 0 3 1;
#X connect 29 0 42 1;
#X connect 32 0 28 0;
#X connect 33 0 10 0;
#X connect 34 0 1 0;
#X connect 35 0 10 0;
#X connect 36 0 0 0;
#X connect 37 0 2 0;
#X connect 38 0 2 0;
#X connect 39 0 10 0;
#X connect 40 0 20 2;
#X connect 41 0 26 1;
#X connect 42 0 32 0;
#X connect 42 0 43 0;
#X connect 43 0 28 1;
#X connect 44 0 20 1;
#X connect 45 0 34 1;
#X connect 46 0 0 0;
