#N canvas 428 52 717 680 12;
#X obj 84 61 mrpeach/unpackOSC;
#X obj 13 385 r param;
#N canvas 679 389 720 394 initialize 0;
#X msg 144 112 stop;
#X obj 144 165 cyclone/counter;
#X obj 226 142 bng 15 250 50 0 empty empty empty 17 7 0 10 -262144
-1 -1;
#X obj 129 247 * 5;
#X obj 102 300 + 2;
#X obj 102 400 + 3;
#X floatatom 102 323 5 0 0 0 - - -;
#X obj 144 188 moses 1;
#X obj 226 109 sel 1;
#X floatatom 102 423 5 0 0 0 - - -;
#X obj 42 527 s param;
#X msg 42 497 param_set \$1 \$2;
#X floatatom 155 323 5 0 0 0 - - -;
#X floatatom 155 423 5 0 0 0 - - -;
#X obj 102 346 pack f f;
#X obj 190 216 t f f;
#X obj 102 446 pack f f;
#X obj 42 29 loadbang;
#X obj 226 83 == 32;
#X obj 42 215 pack 0 0.5;
#X obj 155 300 expr int(($f1-1)/4)/8;
#X obj 155 400 expr (($f1-1)%4)/3*4/10+0.3;
#X obj 144 142 metro 1;
#X msg 447 49 param_set 2 0.48;
#X text 155 273 azimuth calculation;
#X text 155 373 elevation calculation;
#X obj 301 201 s param_2;
#X obj 447 73 s param_3;
#X msg 301 49 param_set 0 1 \, param_set 1 0.2 \, param_set 2 0.5 \,
param_set 4 0.8 \, param_set 5 0.75 \, param_set 7 0.85 \, param_set
8 0.1 \, param_set 9 0.01 \, param_set 10 0.1, f 17;
#X connect 0 0 22 0;
#X connect 1 0 7 0;
#X connect 2 0 1 2;
#X connect 3 0 4 0;
#X connect 3 0 5 0;
#X connect 4 0 6 0;
#X connect 5 0 9 0;
#X connect 6 0 14 0;
#X connect 7 1 15 0;
#X connect 7 1 18 0;
#X connect 8 0 0 0;
#X connect 8 0 2 0;
#X connect 9 0 16 0;
#X connect 11 0 10 0;
#X connect 12 0 14 1;
#X connect 13 0 16 1;
#X connect 14 0 11 0;
#X connect 15 0 3 0;
#X connect 15 1 20 0;
#X connect 15 1 21 0;
#X connect 16 0 11 0;
#X connect 17 0 19 0;
#X connect 17 0 22 0;
#X connect 17 0 23 0;
#X connect 17 0 28 0;
#X connect 18 0 8 0;
#X connect 19 0 11 0;
#X connect 20 0 12 0;
#X connect 21 0 13 0;
#X connect 22 0 1 0;
#X connect 23 0 27 0;
#X connect 28 0 26 0;
#X restore 261 38 pd initialize;
#X obj 84 625 dac~;
#X obj 84 352 voice;
#X obj 94 325 voice;
#X obj 104 298 voice;
#X obj 114 271 voice;
#X obj 140 352 voice;
#X obj 150 325 voice;
#X obj 160 298 voice;
#X obj 84 570 *~ 0.1;
#X obj 145 570 *~ 0.1;
#X obj 170 271 voice;
#X obj 195 352 voice;
#X obj 205 325 voice;
#X obj 215 298 voice;
#X obj 225 271 voice;
#X obj 251 352 voice;
#X obj 261 325 voice;
#X obj 271 298 voice;
#X obj 281 271 voice;
#X obj 307 352 voice;
#X obj 317 325 voice;
#X obj 327 298 voice;
#X obj 337 271 voice;
#X obj 363 352 voice;
#X obj 373 325 voice;
#X obj 383 298 voice;
#X obj 393 271 voice;
#X obj 419 352 voice;
#X obj 429 325 voice;
#X obj 439 298 voice;
#X obj 449 271 voice;
#X obj 475 352 voice;
#X obj 485 325 voice;
#X obj 495 298 voice;
#X obj 505 271 voice;
#X obj 84 138 +;
#X obj 84 196 route 0 1 2 3 4 5 6 7 8 9 10 11 12 13 14 15 16 17 18
19 20 21 22 23 24 25 26 27 28 29 30 31;
#X text 531 571 master;
#X obj 175 111 * 4;
#X obj 84 84 mrpeach/routeOSC /ip_lat /ip_long /protocol /packet_len
/direction, f 66;
#X obj 84 167 pack f f f f;
#X obj 84 411 vstplugin~ MultiEncoder 32 36;
#X f 58;
#X obj 84 466 vstplugin~ FdnReverb 36 36;
#X obj 84 529 vstplugin~ BinauralDecoder 36 2;
#X f 69;
#X obj 316 573 hsl 200 15 0 0.95 0 0 empty empty empty -2 -8 0 10 -262144
-1 -1 14900 1;
#X obj 13 440 r param_2;
#X obj 13 503 r param_3;
#X text 558 329 bottom to top = -180 to 180 y-axis, f 19;
#X text 558 277 left to right = -180 to 180 x-axis, f 19;
#X obj 248 111 + 1;
#X obj 359 138 / 1500;
#X obj 359 111 clip 300 1500;
#X obj 84 38 mrpeach/udpreceive 8006;
#X connect 0 0 42 0;
#X connect 1 0 44 0;
#X connect 4 0 44 0;
#X connect 5 0 44 1;
#X connect 6 0 44 2;
#X connect 7 0 44 3;
#X connect 8 0 44 4;
#X connect 9 0 44 5;
#X connect 10 0 44 6;
#X connect 11 0 3 0;
#X connect 12 0 3 1;
#X connect 13 0 44 7;
#X connect 14 0 44 8;
#X connect 15 0 44 9;
#X connect 16 0 44 10;
#X connect 17 0 44 11;
#X connect 18 0 44 12;
#X connect 19 0 44 13;
#X connect 20 0 44 14;
#X connect 21 0 44 15;
#X connect 22 0 44 16;
#X connect 23 0 44 17;
#X connect 24 0 44 18;
#X connect 25 0 44 19;
#X connect 26 0 44 20;
#X connect 27 0 44 21;
#X connect 28 0 44 22;
#X connect 29 0 44 23;
#X connect 30 0 44 24;
#X connect 31 0 44 25;
#X connect 32 0 44 26;
#X connect 33 0 44 27;
#X connect 34 0 44 28;
#X connect 35 0 44 29;
#X connect 36 0 44 30;
#X connect 37 0 44 31;
#X connect 38 0 43 0;
#X connect 39 0 4 0;
#X connect 39 1 5 0;
#X connect 39 2 6 0;
#X connect 39 3 7 0;
#X connect 39 4 8 0;
#X connect 39 5 9 0;
#X connect 39 6 10 0;
#X connect 39 7 13 0;
#X connect 39 8 14 0;
#X connect 39 9 15 0;
#X connect 39 10 16 0;
#X connect 39 11 17 0;
#X connect 39 12 18 0;
#X connect 39 13 19 0;
#X connect 39 14 20 0;
#X connect 39 15 21 0;
#X connect 39 16 22 0;
#X connect 39 17 23 0;
#X connect 39 18 24 0;
#X connect 39 19 25 0;
#X connect 39 20 26 0;
#X connect 39 21 27 0;
#X connect 39 22 28 0;
#X connect 39 23 29 0;
#X connect 39 24 30 0;
#X connect 39 25 31 0;
#X connect 39 26 32 0;
#X connect 39 27 33 0;
#X connect 39 28 34 0;
#X connect 39 29 35 0;
#X connect 39 30 36 0;
#X connect 39 31 37 0;
#X connect 41 0 38 1;
#X connect 42 0 38 0;
#X connect 42 1 41 0;
#X connect 42 2 52 0;
#X connect 42 3 54 0;
#X connect 42 4 43 3;
#X connect 43 0 39 0;
#X connect 44 0 45 0;
#X connect 44 1 45 1;
#X connect 44 2 45 2;
#X connect 44 3 45 3;
#X connect 44 4 45 4;
#X connect 44 5 45 5;
#X connect 44 6 45 6;
#X connect 44 7 45 7;
#X connect 44 8 45 8;
#X connect 44 9 45 9;
#X connect 44 10 45 10;
#X connect 44 11 45 11;
#X connect 44 12 45 12;
#X connect 44 13 45 13;
#X connect 44 14 45 14;
#X connect 44 15 45 15;
#X connect 44 16 45 16;
#X connect 44 17 45 17;
#X connect 44 18 45 18;
#X connect 44 19 45 19;
#X connect 44 20 45 20;
#X connect 44 21 45 21;
#X connect 44 22 45 22;
#X connect 44 23 45 23;
#X connect 44 24 45 24;
#X connect 44 25 45 25;
#X connect 44 26 45 26;
#X connect 44 27 45 27;
#X connect 44 28 45 28;
#X connect 44 29 45 29;
#X connect 44 30 45 30;
#X connect 44 31 45 31;
#X connect 44 32 45 32;
#X connect 44 33 45 33;
#X connect 44 34 45 34;
#X connect 44 35 45 35;
#X connect 45 0 46 0;
#X connect 45 1 46 1;
#X connect 45 2 46 2;
#X connect 45 3 46 3;
#X connect 45 4 46 4;
#X connect 45 5 46 5;
#X connect 45 6 46 6;
#X connect 45 7 46 7;
#X connect 45 8 46 8;
#X connect 45 9 46 9;
#X connect 45 10 46 10;
#X connect 45 11 46 11;
#X connect 45 12 46 12;
#X connect 45 13 46 13;
#X connect 45 14 46 14;
#X connect 45 15 46 15;
#X connect 45 16 46 16;
#X connect 45 17 46 17;
#X connect 45 18 46 18;
#X connect 45 19 46 19;
#X connect 45 20 46 20;
#X connect 45 21 46 21;
#X connect 45 22 46 22;
#X connect 45 23 46 23;
#X connect 45 24 46 24;
#X connect 45 25 46 25;
#X connect 45 26 46 26;
#X connect 45 27 46 27;
#X connect 45 28 46 28;
#X connect 45 29 46 29;
#X connect 45 30 46 30;
#X connect 45 31 46 31;
#X connect 45 32 46 32;
#X connect 45 33 46 33;
#X connect 45 34 46 34;
#X connect 45 35 46 35;
#X connect 46 0 11 0;
#X connect 46 1 12 0;
#X connect 47 0 12 1;
#X connect 47 0 11 1;
#X connect 48 0 45 0;
#X connect 49 0 46 0;
#X connect 52 0 43 1;
#X connect 53 0 43 2;
#X connect 54 0 53 0;
#X connect 55 0 0 0;
