#N canvas 722 425 205 271 12;
#X obj 71 105 i;
#X obj 34 105 + 1;
#X obj 71 37 inlet;
#X obj 71 205 outlet~;
#X obj 71 67 t b l;
#X obj 71 138 list;
#X obj 71 171 clone boop 8;
#X obj 34 128 % 8;
#X connect 0 0 1 0;
#X connect 0 0 5 0;
#X connect 1 0 7 0;
#X connect 2 0 4 0;
#X connect 4 0 0 0;
#X connect 4 1 5 1;
#X connect 5 0 6 0;
#X connect 6 0 3 0;
#X connect 7 0 0 1;
